<svg width="96" height="112" viewBox="0 0 96 112" fill="none" xmlns="http://www.w3.org/2000/svg">
<path d="M48.3994 89.4707L48.3976 89.4836L48.4345 89.5113L48.3994 89.4762V89.4707Z" fill="#FF7A00"/>
<path d="M95.8867 68.9319C95.6718 65.3378 95.2366 61.7618 94.5864 58.2146C93.8622 54.2629 92.8905 50.3799 91.3661 46.6557C90.4432 44.4017 89.3704 42.22 87.8461 40.2947C86.8599 39.0485 85.7456 37.9395 84.3531 37.1521C82.1045 35.8806 79.8668 35.765 77.6544 36.8252C76.8705 35.4417 75.9277 34.1847 74.7411 33.1029C72.6967 31.239 70.4192 29.7237 67.9394 28.5118C65.9563 27.5437 63.9299 26.6786 61.7987 26.0898C61.7771 26.0844 61.7608 26.0736 61.741 26.0682C61.8674 25.9616 61.9956 25.8568 62.1148 25.7394C63.4694 24.4083 64.6199 22.9184 65.5843 21.282C66.5885 19.5789 67.5909 17.874 68.6438 16.1997C69.6317 14.6284 70.8996 13.3028 72.3011 12.08C73.4787 11.0524 74.64 11.1319 75.8916 11.8182C76.531 12.1686 77.0854 12.6237 77.5352 13.1962C78.1799 14.0198 78.6332 14.9445 78.9276 15.9451C79.0884 16.4941 78.9999 16.6043 78.3659 16.709C78.1004 16.7524 77.8259 16.7632 77.5659 16.8319C76.4208 17.1335 75.3371 17.5525 74.5804 18.535C73.9464 19.3568 73.8273 20.2959 74.2734 21.0454C74.7863 21.9069 75.5575 22.3133 76.5418 22.1652C77.8963 21.9612 79.1642 21.5349 80.0998 20.4404C80.2659 20.2453 80.3924 19.9708 80.7825 20.0232C81.9474 22.1905 82.1334 24.7082 83.0058 27.0489C83.5819 26.1566 83.7192 25.7575 83.7571 24.7732C83.8294 22.9509 83.3959 21.2026 82.9407 19.4615C82.8143 18.9829 82.5669 18.5223 82.1822 18.2045C81.6765 17.7873 81.5031 17.3051 81.6277 16.6747C81.6711 16.458 81.6458 16.2268 81.6404 16.001C81.5537 12.6435 78.9421 10.1349 75.6008 10.2631C73.224 10.3552 71.1362 11.2258 69.3807 12.8386C68.2844 13.8464 67.3398 14.9897 66.5433 16.2539C65.4145 18.0419 64.4194 19.904 63.4278 21.7697C62.7162 23.1098 61.8602 24.3506 60.8614 25.5661C60.7115 25.4234 60.5724 25.2644 60.4514 25.0694C59.6405 23.7672 58.9307 22.4144 58.3907 20.9768C58.0114 19.9654 57.6574 18.9468 57.289 17.9317C56.8591 16.7451 56.3859 15.573 55.6725 14.5255C53.6226 11.5129 50.8557 10.0193 47.1478 10.6009C46.3043 10.7327 45.4682 10.9079 44.6283 11.0668C43.0281 11.3702 41.4388 11.5147 39.8061 11.224C36.2968 10.5991 33.5101 8.90135 31.5775 5.88519C30.9707 4.93881 30.4722 3.92739 29.8889 2.96475C29.3759 2.1195 28.854 1.27606 28.267 0.481387C27.839 -0.098366 27.1689 -0.136302 26.5928 0.270067C26.5187 0.322443 26.4465 0.376628 26.3851 0.441647C25.4278 1.45847 24.5122 2.50961 23.8114 3.72691C23.508 4.25248 23.4086 4.82864 23.4755 5.41923C23.5315 5.90868 23.6217 6.39991 23.7608 6.8713C24.7343 10.1728 26.889 12.6273 29.5854 14.5959C31.5505 16.0318 33.7521 17.0937 36.1361 17.6988C37.4419 18.0311 38.755 18.3418 40.068 18.6452C41.2943 18.9287 42.5296 19.1725 43.7523 19.4741C44.3538 19.6222 44.9877 19.7414 45.5151 20.3067C45.4537 20.9912 45.1105 21.4717 44.78 21.9449C44.2906 22.6456 43.7343 23.3012 43.2719 24.0182C43.1293 24.2404 42.9649 24.4192 42.7879 24.5763C42.107 24.002 41.334 23.536 40.4563 23.1947C38.5165 22.4397 36.5226 22.3205 34.4889 22.586C33.0639 22.772 31.6589 23.0791 30.2591 23.4096C29.5186 23.5848 28.7619 23.713 28.0051 23.8033C26.0022 24.0435 24.066 23.7618 22.2058 22.9761C22.0866 22.772 21.8969 22.716 21.6748 22.7269L21.6477 22.7143C21.5303 22.5192 21.3533 22.447 21.133 22.4596L21.1023 22.4452C20.9903 22.2483 20.8151 22.1724 20.5948 22.1833L20.5677 22.1706C19.5003 21.3525 18.1927 20.8468 17.2824 19.662C17.7376 20.8522 18.5304 21.6161 19.5382 22.1905C21.0192 23.3933 22.7313 24.179 24.4923 24.8599C25.0323 25.0694 25.6193 25.138 26.2027 25.2121C28.0503 25.4487 29.8853 25.2789 31.7148 25.064C33.6853 24.8328 35.6557 24.7768 37.637 24.8238C38.5924 24.8472 39.5044 25.0206 40.3912 25.2934C38.3684 25.6185 36.3998 26.1603 34.4781 26.8701C30.6222 28.2932 27.2339 30.4551 24.3225 33.3611C23.9595 33.7223 23.638 34.1124 23.3328 34.5152C23.1648 34.4104 23.0023 34.2985 22.8289 34.2009C22.1516 33.8216 21.4454 33.5453 20.6724 33.4622C18.991 33.2834 17.3402 33.437 15.7617 34.0456C13.3632 34.9703 11.3224 36.4333 9.66076 38.3857C8.34593 39.9299 7.18102 41.5968 6.29062 43.4264C5.4833 45.0844 4.70845 46.7641 4.00408 48.469C2.81748 51.3461 1.98491 54.3388 1.21371 57.3513C0.370268 60.6456 -0.00358625 63.9796 2.59149e-05 67.3751C0.00544416 71.6194 0.382882 75.824 1.13963 79.9978C1.88554 84.1175 3.37736 87.9717 5.36586 91.6272C7.30379 95.1906 9.99486 98.1471 13.1212 100.714C14.6889 102 16.2963 103.226 18.0825 104.207C21.7272 106.211 25.5398 107.804 29.5512 108.91C32.2838 109.663 35.0182 110.425 37.8266 110.864C40.8103 111.33 43.8174 111.525 46.8317 111.637C47.9118 111.676 48.9991 111.611 50.0719 111.716C52.418 111.946 54.7586 111.74 57.0831 111.565C61.2641 111.25 65.3784 110.479 69.406 109.274C75.3913 107.485 80.8312 104.665 85.6282 100.65C87.7106 98.9075 89.5113 96.9135 90.902 94.5494C92.6792 91.5278 93.8459 88.2805 94.6261 84.8851C95.1806 82.4703 95.5436 80.0267 95.7748 77.5542C96.0457 74.6861 96.0583 71.8036 95.8867 68.9319ZM78.7308 19.5681C78.6007 19.9004 78.4274 20.2201 78.245 20.5289C77.835 21.2243 77.5171 21.4247 76.8163 20.5939C76.1733 19.8317 76.2601 18.6434 76.9681 17.8758C77.0963 17.7367 77.248 17.6572 77.4719 17.6464C77.5695 17.6645 77.7067 17.6735 77.8332 17.715C79.2582 18.1846 79.2834 18.1431 78.7308 19.5681ZM51.2242 72.2569C51.2783 72.1323 51.3307 72.0077 51.3993 71.8921C53.2433 68.7586 55.6581 66.2156 58.9686 64.6027C60.0685 64.0663 61.2262 63.7322 62.4309 63.5137C65.3947 62.9773 68.3891 62.5944 71.3258 61.9135C72.507 61.639 73.7117 61.406 74.8459 60.9942C77.7699 59.9286 80.2912 58.2327 82.3447 55.8722C82.6409 55.5326 82.9155 55.175 83.2225 54.8463C83.4844 54.5645 83.8077 54.4381 84.1978 54.588C84.6023 54.7434 84.7071 55.0919 84.7089 55.4586C84.7125 55.9065 84.6782 56.3598 84.6168 56.8041C84.028 61.0917 83.2171 65.3288 81.6042 69.3708C80.8854 71.1697 80.0673 72.9198 79.1263 74.6157C77.9072 76.8155 76.2853 78.6541 74.2806 80.1694C72.7978 81.291 71.1579 82.1434 69.4854 82.9092C68.0893 83.5486 66.565 83.7996 64.7499 83.8339C63.9624 83.8881 62.9474 83.6696 61.983 83.2813C60.0613 82.5046 58.2137 81.5944 56.5629 80.3012C54.2024 78.45 52.5606 76.066 51.2386 73.4201C51.0345 73.0101 51.0562 72.6452 51.2242 72.2569ZM15.0736 46.1717C15.7942 46.0742 16.2999 46.2259 16.6629 46.6629C16.8887 46.7406 17.1145 46.8219 17.3294 46.9212C18.9206 47.6635 20.3961 48.6009 21.8681 49.5581C24.6802 51.3876 27.0136 53.7626 29.4915 55.9769C30.0948 56.5169 30.6836 57.0714 31.285 57.615C34.312 60.3476 36.8351 63.492 38.9554 66.9705C39.5189 67.8952 39.9506 68.8831 40.3064 69.9036C40.4797 70.4039 40.4635 70.478 40.0174 70.8121C37.7471 72.5152 35.401 74.0955 32.7533 75.1683C32.2133 75.3887 31.6661 75.6018 31.1459 75.8655C29.7932 76.5518 28.3609 76.8426 26.8528 76.8733C26.3977 76.8823 25.9444 76.8769 25.4929 76.8588C25.4567 76.8643 25.4224 76.8679 25.3899 76.8679C20.8783 76.8606 17.1452 74.538 15.4601 70.4888C14.7774 68.8488 14.3891 67.1529 14.2934 65.3848C14.1561 62.8599 14.3295 60.353 14.6672 57.848C14.8659 56.3797 14.9688 54.895 15.0519 53.414C15.1494 51.6928 14.8514 50.0096 14.4198 48.348C14.3294 47.9994 14.2103 47.6545 14.1687 47.3005C14.1001 46.7063 14.4848 46.2511 15.0736 46.1717ZM91.3445 70.03C91.135 73.3677 90.557 76.6385 89.6865 79.8623C88.9297 82.6654 87.7485 85.286 86.2134 87.7387C83.8257 91.5495 80.936 94.9016 77.2118 97.4951C74.0223 99.7166 70.4914 100.45 66.6933 99.9966C65.1617 99.8142 63.7493 99.1929 62.4128 98.4253C62.1401 98.2682 61.8818 98.0857 61.6163 97.9159C61.5008 97.8419 61.3671 97.8003 61.266 97.9141C61.219 97.9665 61.2046 98.0839 61.2262 98.1562C61.3942 98.716 61.5622 99.2777 61.7554 99.8286C62.1907 101.059 62.6422 102.283 63.0865 103.509C63.1479 103.677 63.2183 103.843 63.249 104.017C63.3068 104.342 62.9384 104.667 62.6585 104.528C62.2972 104.349 61.936 104.156 61.6073 103.921C59.189 102.193 56.776 100.461 54.8273 98.1724C54.3342 97.5945 53.7291 97.1086 53.1566 96.6011C52.8514 96.3302 52.5841 96.4476 52.51 96.872C52.4324 97.3145 52.371 97.7624 52.3204 98.2085C52.0712 100.354 51.7678 102.5 52.0875 104.667C52.1145 104.848 52.1272 105.03 51.9484 105.142C51.7714 105.252 51.5853 105.18 51.4391 105.088C50.518 104.512 49.698 103.811 48.9738 103.002C47.5578 101.418 46.3152 99.7238 45.3779 97.7985C44.9751 96.9732 44.7619 96.0159 43.9944 95.3928C43.2177 95.8642 42.6579 96.5831 41.9878 97.1754C40.5375 98.4578 39.1234 99.7817 37.6695 101.057C36.8242 101.797 35.9555 102.518 34.9351 103.02C34.619 103.175 34.4221 103.049 34.4203 102.682C34.4113 100.116 34.4095 97.5493 34.4041 94.9829C34.4041 94.6704 34.4041 94.3597 34.4041 94.0744C34.0031 93.8233 33.7647 94.1105 33.5101 94.2424C30.1074 95.9979 26.5928 97.4933 22.9806 98.7594C22.3015 98.9978 21.6134 99.2109 20.9198 99.3988C20.5297 99.5035 20.1288 99.5234 19.7405 99.3048C19.3377 99.0791 19.2366 98.8443 19.484 98.4469C20.3654 97.0346 21.2612 95.6312 22.1426 94.2171C22.2798 93.9967 22.5074 93.8089 22.4695 93.491C22.3232 93.2436 22.0866 93.3628 21.8861 93.3791C17.4684 93.7584 14.0116 92.0841 11.3657 88.5623C9.61561 86.2342 8.6909 83.5847 8.15088 80.7744C7.81134 79.0045 7.67224 77.2092 7.62528 75.4049C7.52956 71.7151 7.39954 68.0253 7.1214 64.3427C6.89744 61.3753 6.40439 58.4476 5.83728 55.5308C5.7253 54.9565 5.60972 54.3821 5.51219 53.806C5.47246 53.5712 5.54289 53.3653 5.77588 53.2389C5.94565 53.1468 6.13706 53.0817 6.25446 53.2551C6.45313 53.5513 6.63734 53.8656 6.76738 54.1961C7.83658 56.9251 8.71799 59.7119 9.2255 62.6034C9.61381 64.8195 9.93526 67.0464 10.2947 69.2679C10.916 73.113 11.9617 76.8227 13.8635 80.2525C14.7413 81.8346 15.787 83.2867 17.1 84.5491C17.938 85.3546 18.897 85.7068 20.0331 85.6581C21.254 85.6039 22.4406 85.3546 23.6109 85.0133C25.7385 84.392 27.7379 83.4763 29.6451 82.3547C31.1206 81.486 32.5564 80.5595 33.8731 79.4596C34.0446 79.3151 34.2216 79.1742 34.4113 79.0532C34.628 78.9141 34.8412 78.9846 35.0398 79.111C35.2457 79.2411 35.3794 79.4162 35.2963 79.6691C35.1988 79.9671 35.0976 80.2687 34.9658 80.5522C34.2813 82.0242 33.5642 83.4745 32.5041 84.7261C32.3036 84.9645 32.1537 85.2463 31.9821 85.5063C31.9478 85.5334 31.8973 85.5515 31.8792 85.5876C31.8232 85.6942 31.713 85.8315 31.7437 85.9127C31.8033 86.0699 31.9677 85.9922 32.0832 85.947C32.1627 85.9163 32.2278 85.8513 32.2982 85.8026C33.2049 85.5136 34.0176 85.0332 34.8141 84.5347C35.9555 83.8195 37.0663 83.0609 38.1915 82.3204C39.5767 81.4083 40.9584 80.4909 42.3491 79.586C42.7879 79.3007 43.057 79.3928 43.3153 79.8858C43.4598 80.164 43.5952 80.4493 43.7108 80.7401C44.9299 83.7761 46.5608 86.5882 48.3687 89.3027C48.1194 87.9518 47.7944 86.6153 47.7745 85.2264C47.751 83.6461 47.8143 82.0766 48.1321 80.5252C48.1664 80.3572 48.1556 80.1531 48.3615 80.0737C48.6432 79.9653 48.7678 80.1983 48.8997 80.359C49.1851 80.7058 49.456 81.067 49.7178 81.4318C51.3253 83.6623 53.0049 85.8296 55.0241 87.7152C55.6743 88.322 56.1656 89.0951 56.9837 89.6893C57.1517 89.2287 57.0235 88.8585 56.9296 88.4972C56.5972 87.2348 56.2776 85.9669 56.1277 84.6683C56.0753 84.2114 55.7971 83.7364 56.1457 83.2794C56.6153 83.3752 56.8663 83.7815 57.2203 84.0416C58.5622 85.0368 59.9258 85.9705 61.6055 86.3408C62.4941 86.5376 63.3899 86.6171 64.2839 86.6189C65.9961 86.6207 67.701 86.4528 69.3843 86.1313C71.7593 85.6779 73.9393 84.7171 75.9566 83.4149C80.1612 80.7004 83.4374 77.1117 85.8666 72.7356C87.3133 70.1294 88.3789 67.357 89.4824 64.6009C89.5998 64.3083 89.6793 63.9977 89.8292 63.7232C90.0098 63.3909 90.0604 62.7985 90.5227 62.8707C90.8821 62.9267 90.9995 63.4595 91.1331 63.8352C91.3011 64.3084 91.3481 64.7978 91.3698 65.2945C91.4294 66.882 91.4456 68.4551 91.3445 70.03Z" fill="#FF7A00"/>
</svg>
